<svg xmlns="http://www.w3.org/2000/svg" xmlns:xlink="http://www.w3.org/1999/xlink" width="584pt" height="212pt" viewBox="0 0 584 212"><g id="graph0" class="graph" transform="scale(1 1) rotate(0) translate(4 208)"><title>c3_linear</title><polygon fill="#fff" stroke="transparent" points="-4 4 -4 -208 580 -208 580 4 -4 4"/><g id="node1" class="node"><title>A</title><path fill="none" stroke="#000" d="M133.667,-120.5C133.667,-120.5 190.333,-120.5 190.333,-120.5 194.167,-120.5 198,-124.333 198,-128.167 198,-128.167 198,-135.833 198,-135.833 198,-139.667 194.167,-143.5 190.333,-143.5 190.333,-143.5 133.667,-143.5 133.667,-143.5 129.833,-143.5 126,-139.667 126,-135.833 126,-135.833 126,-128.167 126,-128.167 126,-124.333 129.833,-120.5 133.667,-120.5"/><text x="162" y="-128.3" font-family="Times,serif" font-size="14" text-anchor="middle">A</text></g><g id="node2" class="node"><title>O</title><path fill="none" stroke="#000" d="M259.667,-180.5C259.667,-180.5 316.333,-180.5 316.333,-180.5 320.167,-180.5 324,-184.333 324,-188.167 324,-188.167 324,-195.833 324,-195.833 324,-199.667 320.167,-203.5 316.333,-203.5 316.333,-203.5 259.667,-203.5 259.667,-203.5 255.833,-203.5 252,-199.667 252,-195.833 252,-195.833 252,-188.167 252,-188.167 252,-184.333 255.833,-180.5 259.667,-180.5"/><text x="288" y="-188.3" font-family="Times,serif" font-size="14" text-anchor="middle">O</text></g><g id="edge1" class="edge"><title>A-&gt;O</title><path fill="none" stroke="#000" d="M186.294,-143.569C205.73,-152.824 233.19,-165.9 254.678,-176.133"/><polygon fill="#000" stroke="#000" points="263.781 -180.467 252.817 -180.23 259.266 -178.317 254.752 -176.168 254.752 -176.168 254.752 -176.168 259.266 -178.317 256.687 -172.105 263.781 -180.467 263.781 -180.467"/></g><g id="node3" class="node"><title>B</title><path fill="none" stroke="#000" d="M259.667,-120.5C259.667,-120.5 316.333,-120.5 316.333,-120.5 320.167,-120.5 324,-124.333 324,-128.167 324,-128.167 324,-135.833 324,-135.833 324,-139.667 320.167,-143.5 316.333,-143.5 316.333,-143.5 259.667,-143.5 259.667,-143.5 255.833,-143.5 252,-139.667 252,-135.833 252,-135.833 252,-128.167 252,-128.167 252,-124.333 255.833,-120.5 259.667,-120.5"/><text x="288" y="-128.3" font-family="Times,serif" font-size="14" text-anchor="middle">B</text></g><g id="edge2" class="edge"><title>B-&gt;O</title><path fill="none" stroke="#000" d="M288,-143.569C288,-151.122 288,-161.221 288,-170.242"/><polygon fill="#000" stroke="#000" points="288 -180.467 283.5 -170.467 288 -175.467 288 -170.467 288 -170.467 288 -170.467 288 -175.467 292.5 -170.467 288 -180.467 288 -180.467"/></g><g id="node4" class="node"><title>C</title><path fill="none" stroke="#000" d="M7.66667,-120.5C7.66667,-120.5 64.3333,-120.5 64.3333,-120.5 68.1667,-120.5 72,-124.333 72,-128.167 72,-128.167 72,-135.833 72,-135.833 72,-139.667 68.1667,-143.5 64.3333,-143.5 64.3333,-143.5 7.66667,-143.5 7.66667,-143.5 3.83333,-143.5 0,-139.667 0,-135.833 0,-135.833 0,-128.167 0,-128.167 0,-124.333 3.83333,-120.5 7.66667,-120.5"/><text x="36" y="-128.3" font-family="Times,serif" font-size="14" text-anchor="middle">C</text></g><g id="edge3" class="edge"><title>C-&gt;O</title><path fill="none" stroke="#000" d="M72.1055,-140.597C116.829,-151.245 193.083,-169.401 241.967,-181.04"/><polygon fill="#000" stroke="#000" points="251.962 -183.419 241.191 -185.481 247.097 -182.261 242.233 -181.103 242.233 -181.103 242.233 -181.103 247.097 -182.261 243.276 -176.726 251.962 -183.419 251.962 -183.419"/></g><g id="node5" class="node"><title>D</title><path fill="none" stroke="#000" d="M385.667,-120.5C385.667,-120.5 442.333,-120.5 442.333,-120.5 446.167,-120.5 450,-124.333 450,-128.167 450,-128.167 450,-135.833 450,-135.833 450,-139.667 446.167,-143.5 442.333,-143.5 442.333,-143.5 385.667,-143.5 385.667,-143.5 381.833,-143.5 378,-139.667 378,-135.833 378,-135.833 378,-128.167 378,-128.167 378,-124.333 381.833,-120.5 385.667,-120.5"/><text x="414" y="-128.3" font-family="Times,serif" font-size="14" text-anchor="middle">D</text></g><g id="edge4" class="edge"><title>D-&gt;O</title><path fill="none" stroke="#000" d="M389.706,-143.569C370.27,-152.824 342.81,-165.9 321.322,-176.133"/><polygon fill="#000" stroke="#000" points="312.219 -180.467 319.313 -172.105 316.734 -178.317 321.248 -176.168 321.248 -176.168 321.248 -176.168 316.734 -178.317 323.183 -180.23 312.219 -180.467 312.219 -180.467"/></g><g id="node6" class="node"><title>E</title><path fill="none" stroke="#000" d="M511.667,-120.5C511.667,-120.5 568.333,-120.5 568.333,-120.5 572.167,-120.5 576,-124.333 576,-128.167 576,-128.167 576,-135.833 576,-135.833 576,-139.667 572.167,-143.5 568.333,-143.5 568.333,-143.5 511.667,-143.5 511.667,-143.5 507.833,-143.5 504,-139.667 504,-135.833 504,-135.833 504,-128.167 504,-128.167 504,-124.333 507.833,-120.5 511.667,-120.5"/><text x="540" y="-128.3" font-family="Times,serif" font-size="14" text-anchor="middle">E</text></g><g id="edge5" class="edge"><title>E-&gt;O</title><path fill="none" stroke="#000" d="M503.895,-140.597C459.171,-151.245 382.917,-169.401 334.033,-181.04"/><polygon fill="#000" stroke="#000" points="324.038 -183.419 332.724 -176.726 328.903 -182.261 333.767 -181.103 333.767 -181.103 333.767 -181.103 328.903 -182.261 334.809 -185.481 324.038 -183.419 324.038 -183.419"/></g><g id="node7" class="node"><title>K1</title><path fill="none" stroke="#000" d="M133.667,-60.5C133.667,-60.5 190.333,-60.5 190.333,-60.5 194.167,-60.5 198,-64.3333 198,-68.1667 198,-68.1667 198,-75.8333 198,-75.8333 198,-79.6667 194.167,-83.5 190.333,-83.5 190.333,-83.5 133.667,-83.5 133.667,-83.5 129.833,-83.5 126,-79.6667 126,-75.8333 126,-75.8333 126,-68.1667 126,-68.1667 126,-64.3333 129.833,-60.5 133.667,-60.5"/><text x="162" y="-68.3" font-family="Times,serif" font-size="14" text-anchor="middle">K1</text></g><g id="edge6" class="edge"><title>K1-&gt;A</title><path fill="none" stroke="#000" d="M162,-83.5686C162,-91.1221 162,-101.221 162,-110.242"/><polygon fill="#000" stroke="#000" points="162 -120.467 157.5 -110.467 162 -115.467 162 -110.467 162 -110.467 162 -110.467 162 -115.467 166.5 -110.467 162 -120.467 162 -120.467"/></g><g id="edge7" class="edge"><title>K1-&gt;B</title><path fill="none" stroke="#000" d="M186.294,-83.5686C205.73,-92.8237 233.19,-105.9 254.678,-116.133"/><polygon fill="#000" stroke="#000" points="263.781 -120.467 252.817 -120.23 259.266 -118.317 254.752 -116.168 254.752 -116.168 254.752 -116.168 259.266 -118.317 256.687 -112.105 263.781 -120.467 263.781 -120.467"/></g><g id="edge8" class="edge"><title>K1-&gt;C</title><path fill="none" stroke="#000" d="M137.706,-83.5686C118.27,-92.8237 90.8105,-105.9 69.3217,-116.133"/><polygon fill="#000" stroke="#000" points="60.219 -120.467 67.313 -112.105 64.734 -118.317 69.248 -116.168 69.248 -116.168 69.248 -116.168 64.734 -118.317 71.183 -120.23 60.219 -120.467 60.219 -120.467"/></g><g id="node8" class="node"><title>K2</title><path fill="none" stroke="#000" d="M385.667,-60.5C385.667,-60.5 442.333,-60.5 442.333,-60.5 446.167,-60.5 450,-64.3333 450,-68.1667 450,-68.1667 450,-75.8333 450,-75.8333 450,-79.6667 446.167,-83.5 442.333,-83.5 442.333,-83.5 385.667,-83.5 385.667,-83.5 381.833,-83.5 378,-79.6667 378,-75.8333 378,-75.8333 378,-68.1667 378,-68.1667 378,-64.3333 381.833,-60.5 385.667,-60.5"/><text x="414" y="-68.3" font-family="Times,serif" font-size="14" text-anchor="middle">K2</text></g><g id="edge10" class="edge"><title>K2-&gt;B</title><path fill="none" stroke="#000" d="M389.706,-83.5686C370.27,-92.8237 342.81,-105.9 321.322,-116.133"/><polygon fill="#000" stroke="#000" points="312.219 -120.467 319.313 -112.105 316.734 -118.317 321.248 -116.168 321.248 -116.168 321.248 -116.168 316.734 -118.317 323.183 -120.23 312.219 -120.467 312.219 -120.467"/></g><g id="edge9" class="edge"><title>K2-&gt;D</title><path fill="none" stroke="#000" d="M414,-83.5686C414,-91.1221 414,-101.221 414,-110.242"/><polygon fill="#000" stroke="#000" points="414 -120.467 409.5 -110.467 414 -115.467 414 -110.467 414 -110.467 414 -110.467 414 -115.467 418.5 -110.467 414 -120.467 414 -120.467"/></g><g id="edge11" class="edge"><title>K2-&gt;E</title><path fill="none" stroke="#000" d="M438.294,-83.5686C457.73,-92.8237 485.19,-105.9 506.678,-116.133"/><polygon fill="#000" stroke="#000" points="515.781 -120.467 504.817 -120.23 511.266 -118.317 506.752 -116.168 506.752 -116.168 506.752 -116.168 511.266 -118.317 508.687 -112.105 515.781 -120.467 515.781 -120.467"/></g><g id="node9" class="node"><title>K3</title><path fill="none" stroke="#000" d="M259.667,-60.5C259.667,-60.5 316.333,-60.5 316.333,-60.5 320.167,-60.5 324,-64.3333 324,-68.1667 324,-68.1667 324,-75.8333 324,-75.8333 324,-79.6667 320.167,-83.5 316.333,-83.5 316.333,-83.5 259.667,-83.5 259.667,-83.5 255.833,-83.5 252,-79.6667 252,-75.8333 252,-75.8333 252,-68.1667 252,-68.1667 252,-64.3333 255.833,-60.5 259.667,-60.5"/><text x="288" y="-68.3" font-family="Times,serif" font-size="14" text-anchor="middle">K3</text></g><g id="edge13" class="edge"><title>K3-&gt;A</title><path fill="none" stroke="#000" d="M263.706,-83.5686C244.27,-92.8237 216.81,-105.9 195.322,-116.133"/><polygon fill="#000" stroke="#000" points="186.219 -120.467 193.313 -112.105 190.734 -118.317 195.248 -116.168 195.248 -116.168 195.248 -116.168 190.734 -118.317 197.183 -120.23 186.219 -120.467 186.219 -120.467"/></g><g id="edge12" class="edge"><title>K3-&gt;D</title><path fill="none" stroke="#000" d="M312.294,-83.5686C331.73,-92.8237 359.19,-105.9 380.678,-116.133"/><polygon fill="#000" stroke="#000" points="389.781 -120.467 378.817 -120.23 385.266 -118.317 380.752 -116.168 380.752 -116.168 380.752 -116.168 385.266 -118.317 382.687 -112.105 389.781 -120.467 389.781 -120.467"/></g><g id="node10" class="node"><title>Z</title><path fill="none" stroke="#000" d="M259.667,-0.5C259.667,-0.5 316.333,-0.5 316.333,-0.5 320.167,-0.5 324,-4.33333 324,-8.16667 324,-8.16667 324,-15.8333 324,-15.8333 324,-19.6667 320.167,-23.5 316.333,-23.5 316.333,-23.5 259.667,-23.5 259.667,-23.5 255.833,-23.5 252,-19.6667 252,-15.8333 252,-15.8333 252,-8.16667 252,-8.16667 252,-4.33333 255.833,-0.5 259.667,-0.5"/><text x="288" y="-8.3" font-family="Times,serif" font-size="14" text-anchor="middle">Z</text></g><g id="edge14" class="edge"><title>Z-&gt;K1</title><path fill="none" stroke="#000" d="M263.706,-23.5686C244.27,-32.8237 216.81,-45.8998 195.322,-56.1325"/><polygon fill="#000" stroke="#000" points="186.219 -60.467 193.313 -52.105 190.734 -58.317 195.248 -56.167 195.248 -56.167 195.248 -56.167 190.734 -58.317 197.183 -60.23 186.219 -60.467 186.219 -60.467"/></g><g id="edge15" class="edge"><title>Z-&gt;K2</title><path fill="none" stroke="#000" d="M312.294,-23.5686C331.73,-32.8237 359.19,-45.8998 380.678,-56.1325"/><polygon fill="#000" stroke="#000" points="389.781 -60.467 378.817 -60.23 385.266 -58.317 380.752 -56.167 380.752 -56.167 380.752 -56.167 385.266 -58.317 382.687 -52.105 389.781 -60.467 389.781 -60.467"/></g><g id="edge16" class="edge"><title>Z-&gt;K3</title><path fill="none" stroke="#000" d="M288,-23.5686C288,-31.1221 288,-41.2207 288,-50.2415"/><polygon fill="#000" stroke="#000" points="288 -60.467 283.5 -50.467 288 -55.467 288 -50.467 288 -50.467 288 -50.467 288 -55.467 292.5 -50.467 288 -60.467 288 -60.467"/></g></g></svg>